<?xml version="1.0" encoding="utf-8"?>
<!-- Generator: Adobe Illustrator 23.0.0, SVG Export Plug-In . SVG Version: 6.00 Build 0)  -->
<svg version="1.1" xmlns="http://www.w3.org/2000/svg" xmlns:xlink="http://www.w3.org/1999/xlink" x="0px" y="0px"
	 viewBox="0 0 600 600" style="enable-background:new 0 0 600 600;" xml:space="preserve">
<style type="text/css">
	.st0{fill:#730000;}
</style>
<g id="Layer_2">
</g>
<g id="Layer_1">
	<g>
		<path class="st0" d="M214.4,534.2l-6.8-15.5c-0.3-0.8-1.3-1.1-2.1-0.8l-15.5,6.8c-0.8,0.3-1.1,1.3-0.8,2.1l6.8,15.5
			c0.3,0.8,1.3,1.1,2.1,0.8l15.5-6.8C214.4,535.9,214.8,535,214.4,534.2z"/>
		<circle class="st0" cx="150.8" cy="508.4" r="5.7"/>
		<circle class="st0" cx="130.5" cy="494.8" r="5.7"/>
		<circle class="st0" cx="81.6" cy="449.5" r="5.7"/>
		<path class="st0" d="M112.2,463.7l-16.9,1.1c-0.9,0.1-1.5,0.8-1.5,1.7l1.1,16.9c0.1,0.9,0.8,1.5,1.7,1.5l16.9-1.1
			c0.9-0.1,1.5-0.8,1.5-1.7l-1.1-16.9C113.8,464.3,113,463.7,112.2,463.7z"/>
		<path class="st0" d="M46.7,363.9l-15.4-7c-0.8-0.4-1.7,0-2.1,0.8l-7,15.4c-0.4,0.8,0,1.7,0.8,2.1l15.4,7c0.8,0.4,1.7,0,2.1-0.8
			l7-15.4C47.8,365.2,47.5,364.3,46.7,363.9z"/>
		<circle class="st0" cx="18.9" cy="279.3" r="5.7"/>
		
			<ellipse transform="matrix(0.2708 -0.9626 0.9626 0.2708 -281.0427 243.9932)" class="st0" cx="20.5" cy="307.5" rx="5.7" ry="5.7"/>
		<circle class="st0" cx="25.4" cy="336.9" r="5.7"/>
		<path class="st0" d="M35.3,247l-10.4-13.3c-0.5-0.7-1.5-0.8-2.2-0.3L9.3,243.9c-0.7,0.5-0.8,1.5-0.3,2.2l10.4,13.3
			c0.5,0.7,1.5,0.8,2.2,0.3L35,249.2C35.7,248.7,35.8,247.7,35.3,247z"/>
		<circle class="st0" cx="174.1" cy="520.9" r="5.7"/>
		
			<ellipse transform="matrix(0.2019 -0.9794 0.9794 0.2019 -366.541 401.7898)" class="st0" cx="63.3" cy="425.8" rx="5.7" ry="5.7"/>
		<circle class="st0" cx="49.3" cy="401.1" r="5.7"/>
		<path class="st0" d="M488.8,138.8l-5.7,15.9c-0.3,0.8,0.1,1.7,0.9,2l15.9,5.7c0.8,0.3,1.7-0.1,2-0.9l5.7-15.9
			c0.3-0.8-0.1-1.7-0.9-2l-15.9-5.7C490,137.6,489.1,138,488.8,138.8z"/>
		<circle class="st0" cx="38.4" cy="189.8" r="5.7"/>
		<circle class="st0" cx="48.7" cy="167.5" r="5.7"/>
		<circle class="st0" cx="85.6" cy="112.1" r="5.7"/>
		<path class="st0" d="M76.5,144.5L72.8,128c-0.2-0.8-1-1.4-1.9-1.2l-16.5,3.7c-0.8,0.2-1.4,1-1.2,1.9l3.7,16.5
			c0.2,0.8,1,1.4,1.9,1.2l16.5-3.7C76.1,146.2,76.7,145.4,76.5,144.5z"/>
		<path class="st0" d="M164.7,64.1l4.5-16.3c0.2-0.8-0.3-1.7-1.1-1.9l-16.3-4.5c-0.8-0.2-1.7,0.3-1.9,1.1l-4.5,16.3
			c-0.2,0.8,0.3,1.7,1.1,1.9l16.3,4.5C163.6,65.4,164.4,64.9,164.7,64.1z"/>
		<circle class="st0" cx="243.8" cy="23.3" r="5.7"/>
		<ellipse transform="matrix(0.115 -0.9934 0.9934 0.115 162.2217 240.7073)" class="st0" cx="216.2" cy="29.3" rx="5.7" ry="5.7"/>
		<circle class="st0" cx="188" cy="38.8" r="5.7"/>
		<path class="st0" d="M278.2,34.3l11.5-12.4c0.6-0.6,0.5-1.6-0.1-2.2L277.2,8.2c-0.6-0.6-1.6-0.5-2.2,0.1l-11.5,12.4
			c-0.6,0.6-0.5,1.6,0.1,2.2L276,34.4C276.7,34.9,277.6,34.9,278.2,34.3z"/>
		<circle class="st0" cx="29.8" cy="214.8" r="5.7"/>
		
			<ellipse transform="matrix(4.429872e-02 -0.999 0.999 4.429872e-02 11.3234 192.2935)" class="st0" cx="106.2" cy="90.2" rx="5.7" ry="5.7"/>
		<circle class="st0" cx="128.3" cy="72.5" r="5.7"/>
		<circle class="st0" cx="314.3" cy="27.2" r="5.7"/>
		<path class="st0" d="M395.1,72.3l16.4-4.1c0.8-0.2,1.3-1.1,1.1-1.9l-4.1-16.4c-0.2-0.8-1.1-1.3-1.9-1.1l-16.4,4.1
			c-0.8,0.2-1.3,1.1-1.1,1.9l4.1,16.4C393.4,72,394.2,72.6,395.1,72.3z"/>
		<circle class="st0" cx="469.5" cy="121.2" r="5.7"/>
		<ellipse transform="matrix(0.9213 -0.389 0.389 0.9213 -3.4491 183.1723)" class="st0" cx="450.7" cy="100.1" rx="5.7" ry="5.7"/>
		<circle class="st0" cx="428.5" cy="80.2" r="5.7"/>
		<ellipse transform="matrix(0.8914 -0.4533 0.4533 0.8914 21.756 159.4176)" class="st0" cx="343.5" cy="34.3" rx="5.7" ry="5.7"/>
		<circle class="st0" cx="369.8" cy="44.9" r="5.7"/>
		<circle class="st0" cx="520.3" cy="201" r="5.7"/>
		<circle class="st0" cx="526.4" cy="224.7" r="5.7"/>
		<circle class="st0" cx="533.1" cy="291" r="5.7"/>
		<path class="st0" d="M519.6,260.1l13.3,10.4c0.7,0.5,1.7,0.4,2.2-0.3l10.4-13.3c0.5-0.7,0.4-1.7-0.3-2.2l-13.3-10.4
			c-0.7-0.5-1.7-0.4-2.2,0.3l-10.4,13.3C518.8,258.6,518.9,259.6,519.6,260.1z"/>
		<path class="st0" d="M502.6,378.3l6.9,15.4c0.3,0.8,1.3,1.1,2.1,0.8l15.4-6.9c0.8-0.3,1.1-1.3,0.8-2.1l-6.9-15.4
			c-0.3-0.8-1.3-1.1-2.1-0.8l-15.4,6.9C502.6,376.6,502.3,377.5,502.6,378.3z"/>
		<circle class="st0" cx="467.4" cy="460.1" r="5.7"/>
		
			<ellipse transform="matrix(0.8402 -0.5422 0.5422 0.8402 -159.9625 332.8892)" class="st0" cx="484.9" cy="437.9" rx="5.7" ry="5.7"/>
		<circle class="st0" cx="500.7" cy="412.6" r="5.7"/>
		<path class="st0" d="M429.5,475.7l-1,16.9c-0.1,0.9,0.6,1.6,1.5,1.7l16.9,1c0.9,0.1,1.6-0.6,1.7-1.5l1-16.9
			c0.1-0.9-0.6-1.6-1.5-1.7l-16.9-1C430.3,474.2,429.6,474.9,429.5,475.7z"/>
		<circle class="st0" cx="511" cy="176.3" r="5.7"/>
		
			<ellipse transform="matrix(0.7997 -0.6004 0.6004 0.7997 -86.2906 383.226)" class="st0" cx="531.2" cy="320.9" rx="5.7" ry="5.7"/>
		<circle class="st0" cx="525.3" cy="348.7" r="5.7"/>
		<circle class="st0" cx="385.7" cy="518" r="5.7"/>
		<circle class="st0" cx="362.8" cy="526.7" r="5.7"/>
		<circle class="st0" cx="297.6" cy="540.4" r="5.7"/>
		<path class="st0" d="M326.9,523.7l-8.9,14.4c-0.4,0.7-0.2,1.7,0.5,2.2l14.4,8.9c0.7,0.4,1.7,0.2,2.2-0.5l8.9-14.4
			c0.4-0.7,0.2-1.7-0.5-2.2l-14.4-8.9C328.3,522.8,327.3,523,326.9,523.7z"/>
		<circle class="st0" cx="409.3" cy="506.2" r="5.7"/>
		
			<ellipse transform="matrix(0.7308 -0.6826 0.6826 0.7308 -297.7191 328.5373)" class="st0" cx="267.7" cy="541.7" rx="5.7" ry="5.7"/>
		<circle class="st0" cx="239.4" cy="538.8" r="5.7"/>
		<path class="st0" d="M105.8,172.8c-0.9-3.5,1.3-6.3,3.2-9.1c1.2-1.9,2.6-3.6,3.8-5.5c2.2-3.6,5.2-6.3,9.1-7.9
			c0.5-0.2,1.3-0.6,1.4-1.1c1.4-4.4,4.1-7.9,7.3-11c4.8-4.7,8.9-10.3,15.3-13.2c1.2-0.5,2.5-0.9,3.7-1.4c1-0.5,2.4-0.9,2.9-1.7
			c3.9-6.3,10.9-8.4,16.5-12.3c0.7-0.5,1.5-0.9,2.2-1.4c1.7-1.2,3.2-2.5,5.6-1.5c1.1,0.5,1.9-0.4,3-1.3c2-1.7,4.8-2.6,7.4-3.7
			c0.4-0.2,0.9,0,1.3-0.1c0.5-1.8,3.8-4.3,5.5-4.8c2.4-0.6,4.6-1.5,6.9-2.4c2.4-0.9,4.6-2.1,6.9-3.1c1.1-0.5,2.2-0.8,3.4-1
			c1.7-0.3,3.3-0.4,5.5-0.6c1.2-1.1,2.9-2.7,4.8-4.1c0.5-0.4,1.8-0.4,2.4,0c1.4,0.9,2,0.1,2.9-0.7c1-0.9,2.1-1.8,3.3-2.3
			c1.9-0.8,3.8-1.5,5.8-2.1c1.4-0.4,3.2-1,4.4-0.5c2.7,1.2,4.5,0,6.7-1.2c2-1.1,4.6-1.5,6.9-1.6c4.8-0.3,9.6-0.2,14.5-0.5
			c3.2-0.2,6.4-0.8,9.6-1.1c1.1-0.1,2.2-0.2,3.2,0.2c4.5,1.6,9-0.1,13.5,0c2.2,0,4.5,0,6.7,0.5c3.8,0.7,7.6,1.4,11.1,2.8
			c3,1.1,5.3,2.8,9,2.4c2.7-0.3,5.7,2.1,8.6,3.3c3.9,1.6,7.8,3.1,11.6,4.9c1.9,0.9,3.8,2,5.2,3.5c1.3,1.4,2.5,0.8,3.9,0.8
			c4.7-0.1,8.4,2.5,12.2,4.8c2.7,1.5,5.6,2.5,8.4,3.8c1,0.4,1.8,1.1,2.6,1.8c4.4,3.6,8.7,6.7,14.4,8.5c5,1.5,10.7,3.9,13.1,9.8
			c0.2,0.5,0.9,1.2,1.3,1.2c3.9-0.3,4.8,3,6.7,5.2c0.8,0.9,1.2,2.3,2.9,1.4c0.3-0.2,1.4,0.6,1.9,1.1c3.2,3.6,6.3,7.3,9.5,10.9
			c0.7,0.8,1.7,1.3,2.5,2c1.6,1.5,3.8,2.5,3.7,5.4c0,0.8,1.4,2.1,2.5,2.5c2.6,1,4,2.8,5.3,5c0.8,1.4,2,2.7,3.1,3.9
			c3.5,4.2,5.8,8.9,7,14.2c0.1,0.7,0.4,1.6,0.8,1.9c3,1.9,4,4.9,5,8c0.7,2.1,2.3,3.8,3.2,5.9c1.3,3.3,3,6.7,3.2,10.2
			c0.3,3.5,2,6,3.6,8.7c1.4,2.4,2.5,4.9,3.7,7.4c0.5,1,0.9,2.1,1.3,3.2c0.2,0.5,0.4,1.1,0.2,1.4c-2.1,3,0.5,4.6,1.6,6.8
			c1.6,3.3,5,6.3,4,10.1c-1,3.4,0.3,5.7,1.4,8.4c0.4,1.1,0.7,2.3,0.8,3.6c0.3,5.1,0.5,10.2,0.7,15.3c0.2,4,1,8-1.6,11.7
			c-0.5,0.7-0.6,2.3-0.2,2.8c3,3.5,1.4,7.6,1.7,11.4c0.2,2.8-0.7,5.7-1,8.5c-0.2,2.1-0.1,4.3-0.4,6.4c-0.6,4.5-1.4,8.9-2.1,13.4
			c-0.6,3.8-1.1,7.7-1.7,11.5c-0.3,1.8-0.8,3.5-1.1,5.2c-0.2,1.1-0.2,2.2-0.2,3.3c-0.1,0.7,0.1,1.7-0.2,2.1
			c-3.1,2.9-1.5,7.1-2.9,10.6c-1.4,3.6-2.1,7.4-3,11.1c-0.3,1.4,0.1,3-0.5,4.2c-1.1,2.4-2.4,4.8-4.1,6.8c-1.1,1.4-1.7,2.7-2.2,4.6
			c-0.8,3.3-2.5,6.5-4.2,9.5c-1.8,3.1-3.9,6-6.2,8.7c-1.9,2.1-4.2,3.8-6.3,5.8c-0.3,0.3-0.8,0.7-0.8,1c0,5.5-5,5.8-8.2,8
			c-0.8,0.5-1.9,0.7-2.6,1.4c-1.7,1.6-1.7,3.3,0.1,4.8c4.4,3.7,9,7.3,13.3,11.1c5.9,5.2,11.4,10.9,17.6,15.9
			c5.4,4.3,7.4,10.7,11.4,15.9c3.9,5,8,9.9,12.1,14.7c2.8,3.3,5.7,6.7,8.9,9.6c3.8,3.6,7.9,6.9,12.1,10.2c4.9,3.9,10,7.6,15,11.4
			c5.5,4.2,10.7,8.8,16.5,12.5c5.7,3.7,11.7,7.2,18,9.9c7,2.9,14.4,5.2,21.8,7c6.3,1.6,9.5,4.9,8.9,12.5c-0.3,4.8,1.5,9.9,3.3,14.5
			c2.2,5.5,3.8,11,5.1,16.7c1.2,5.5,2.7,10.8,4.1,16.3c0,0.2,0.2,0.3,0.2,0.5c-0.1,1.4-0.2,2.7-0.4,4.1c-1.2-0.4-2.7-0.4-3.6-1.1
			c-4.1-3-8.1-6.3-12.2-9.3c-9.3-6.8-18.7-13.6-28-20.4c-4-2.9-7.7-6.1-11.7-9.1c-6.7-5.1-13.4-10.2-20.1-15.3
			c-3.8-2.9-7.5-5.9-11.3-8.7c-8.1-6-16.3-12-24.4-18.1c-5.8-4.3-11.6-8.8-17.3-13.2c-10.8-8.2-21.5-16.4-32.3-24.5
			c-10.7-8-21.4-16-32-24c-3.9-2.9-7.7-5.8-11.6-8.7c-0.5-0.4-1.4-0.7-1.9-0.4c-2.8,1.2-5.5,2.6-8.2,4c-1.2,0.6-2.3,1.3-3.5,1.8
			c-1.8,0.7-4.2,0-5,2.6c-0.1,0.2-0.6,0.3-1,0.4c-4.8,1.7-9.5,3.7-14.5,4.9c-3.1,0.8-5.4,2.2-7.8,4c-1.8,1.4-4.3,2-6.6,2.7
			c-4.5,1.3-9.1,2.5-13.6,3.7c-1.4,0.4-2.8,0.8-4.2,0.9c-2,0.2-3.6,0.8-5.2,2.3c-1.3,1.2-3.8,1.3-5.8,1.7c-2.3,0.5-4.7,0.9-7.6,1.5
			c-1.1-1-2.7-2.2-3.8,0.9c-0.1,0.2-0.5,0.2-0.7,0.2c-4.3,0.2-8.5,0.6-12.8,0.5c-5.9-0.1-11.8-0.6-17.7-0.7c-1.2,0-2.4,1.3-3.8,1.6
			c-6.8,1.7-13.7,1.3-20.6,1.7c-0.3,0-0.9,0-1-0.2c-3.5-4.5-9.2-3-13.7-4.9c-4.5-1.9-9.8-2.1-14.7-3c-0.8-0.2-2-0.3-2.3-0.8
			c-1.4-3.1-4.4-2.9-7-3.6c-2.1-0.5-4.2-1.7-6.3-1.9c-5.2-0.4-9.5-3.3-13-6.2c-2.8-2.3-5-4-8.7-4.5c-3.4-0.4-6.3-3.2-9.7-4.2
			c-4-1.3-5.9-4.3-8-7.5c-0.5-0.8-1.5-1.3-2.3-1.8c-1.8-1.1-3.6-2.1-5.4-3.3c-3.1-2.1-6.1-4.4-9.1-6.6c-1.8-1.3-3.9-2.4-4-5
			c0-0.2-0.1-0.4-0.2-0.5c-2.1-1.7-4.4-3.2-6.4-5.1c-2.6-2.4-5-4.9-7.4-7.4c-3.3-3.4-6.5-6.8-9.7-10.2c-0.5-0.5-1.1-1-1.3-1.6
			c-2.4-6.6-8.5-10.7-11.6-16.9c-1.3-2.7-3.7-4.8-5.3-7.4c-0.9-1.4-1.1-3.4-1.9-4.9c-1.1-2-2.5-3.8-3.7-5.8
			c-3.2-5.1-5.5-10.7-6.5-16.7c-0.1-0.4-0.1-1.2-0.3-1.2c-3.5-1.3-3-4.7-3.6-7.2c-1-3.7-3.5-6.9-3.4-11.2c0.1-2.7-2.2-5.4-2.7-8.2
			c-0.7-3.6-1-7.2-1.1-10.9c-0.1-1.8,0.6-3.7,0.9-5.6c0.1-0.4,0-0.9-0.2-1.3c-2.9-5-2.8-10.6-3.4-16.1c-0.3-2.5-1.1-5-0.8-7.4
			c0.7-4.7-1.5-9.2-0.8-13.9c0.6-4,0.9-8,1.3-12c0.2-1.8,0-3.5,0.2-5.3c0.2-2.4-0.1-4.8,1.9-6.8c1.3-1.4,2.1-3.3,2.9-5.1
			c0.3-0.5,0.2-1.6-0.1-1.9c-2.9-2.4-1.4-5.5-1.1-8.2c0.7-7.3,3.8-13.8,7.5-19.9c0.7-1.1,1.9-2,2.8-2.9c1-1.1,2.4-1.8,1-3.7
			c-1.8-2.3-1.6-4.8-0.2-7.3c1.8-3.2,3.5-6.5,5.1-9.9c0.5-1,0.5-2.2,0.9-3.3c1.2-2.9,2.2-5.9,3.9-8.5
			C101.6,174.1,103.9,173.7,105.8,172.8z M136.3,163.4c-1,0.6-2,1.1-2.9,1.7c-4.6,3.6-6.3,9.9-11.7,12.8c-0.2,0.1-0.3,0.4-0.4,0.7
			c-0.7,4.2-3.8,7-5.7,10.5c-2.8,4.8-5.1,10-7.7,14.9c-0.6,1.1-1.7,1.9-2.3,3c-0.5,0.9-1.3,2.3-1,3.1c1.3,3.4-0.2,6.3-1.1,9.4
			c-1.1,3.9-2.3,7.7-2.9,11.7c-0.4,2.2-0.8,4.1-2.4,5.7c-0.5,0.5-0.7,2-0.4,2.3c1.9,1.7,0.6,3.6,0.6,5.3c0,0.3-0.1,0.6-0.3,0.8
			c-2.2,2.8-1.8,6.1-2.4,9.3c-1,5.5,0.4,11.3-1.9,16.6c-0.2,0.4-0.1,1.1,0,1.6c1.1,3.9,1.3,7.9,0.5,11.9c-0.2,1,0,2.1,0,3.2
			c0.2,4.5,1.1,9.1,0.4,13.5c-0.6,3.5,0.7,6.5,1.1,9.6c0.7,4.4,3.5,8.5,1.9,13.2c-0.1,0.3,0,0.7,0.2,1c1.1,2.3,2.3,4.5,3.3,6.9
			c1.3,2.9,2.7,5.9,3.4,8.9c0.5,2.4,0.9,4.5,2.3,6.7c3.1,5.1,5,10.8,8.7,15.7c3.8,5,6.9,10.5,10.3,15.8c0.7,1.1,0.8,2.5,1.5,3.6
			c0.9,1.5,2.2,2.7,3.3,4.1c1.8,2.2,3.8,4.3,5.6,6.5c2.7,3.3,5.5,6.6,8.1,10c1,1.3,1.5,3,2.5,4.3c1.9,2.3,4,4.5,6.1,6.6
			c0.7,0.7,1.4,1.5,2.2,2c2.4,1.5,4.8,3.1,7.4,4.2c4.4,2,5.8,7.1,10.3,9.2c4.6,2.1,8.7,5.2,13,7.9c1.5,0.9,2.7,2.3,4.1,3.2
			c1.2,0.7,2.8,1.9,3.7,1.5c2.1-0.7,3,0.3,4.2,1.5c0.8,0.8,1.7,1.5,2.2,2.1c1.1-3.7,2.1-7.3,3.2-10.9c2.2-7.3,4-14.8,6.9-21.8
			c2.5-6.2,5.9-12.1,9.6-17.8c4.6-7.1,8.1-14.9,13.4-21.7c3.3-4.2,5.7-9,8.8-13.4c2.9-4.2,6.2-8.1,9.2-12.1c0.9-1.2,1.5-2.5,2.1-3.6
			c-1.4-1.2-3-1.9-3.6-3.1c-2.6-5.1-5-10.3-7.3-15.5c-1.7-3.7-3.1-7.7-5.1-11.2c-3.8-6.9-7.9-13.6-11.9-20.3
			c-2.4-4.2-4.7-8.5-7.2-12.6c-5.4-8.7-10.9-17.3-16.4-25.9c-2.3-3.6-4.4-7.4-6.8-10.9c-5.5-8.2-11.2-16.3-16.8-24.3
			c-6.8-9.6-13.3-19.4-20.6-28.6c-6.8-8.6-14.4-16.7-21.6-25C134.8,165.7,134.6,164.5,136.3,163.4c0.3-0.3,0.7-0.9,1-0.9
			c3.1,0.8,6.6,1.1,9.3,2.7c6.6,4,13.9,5,21.2,6.3c6.6,1.1,13.3,1.3,20,1.8c7.1,0.6,14.2,1.3,21.4,0c3.2-0.5,6.3-1.1,9.5-1.8
			c4-0.8,8.1-1.3,11.9-2.6c5.9-2.1,11.6-4.7,17.3-7.2c2.2-0.9,3.1-0.1,3.9,1.8c0.3,0.8,0.9,1.8,1.6,2.1c3.1,1.3,5.9,0,8.3-1.8
			c0.4-0.3,0.6-1.6,0.4-2.1c-2.5-4.7-5.3-9.1-10.1-12c-4.8-2.9-9.4-6.2-14.1-9.4c-0.4-0.3-0.6-0.9-0.9-1.4c1-0.1,1.5,0.1,2,0.5
			c3.7,2.5,7.4,5,11.1,7.6c4.8,3.4,9.7,6.8,12.2,12.4c0.5,1.2,1.6,2.4,1.6,3.6c0,1.1-1.1,2.2-2,3.9c6.3,0.2,12.2,0.5,17.1,0.7
			c1.5-3.5,2.6-5.9,3.7-8.4c0.2,0.1,0.4,0.2,0.5,0.2c0,0.7,0,1.5,0,2c2-0.6,3.8-1,5.5-1.6c1-0.3,2-1,3.1-1.3
			c1.9-0.4,3.8-0.5,5.7-0.9c3.3-0.6,6.5-1.7,9.8-2c3.9-0.4,7.7,0.4,11.7-0.6c2.8-0.7,6-0.1,9,0.3c0.9,0.1,1.7,1.3,2.5,2
			c-0.1,0.1-0.2,0.2-0.2,0.3c0.7,0.6,1.5,1.2,2.6,2.2c3.6-1.3,7.8-3,12.1-4.3c2.9-0.9,6-1.4,9.1-1.6c3.4-0.2,6.9,0.2,10,0.3
			c-0.7,0.9-1.8,2.4-3.2,4.3c1.8,0,3.2,0.1,4.5,0.1c3.1,2.9-2.5,3.3-1.7,5.8c0.3-0.1,0.7,0,1-0.2c2.4-1.8,4.6-3.9,7.2-5.5
			c3.5-2.3,6.8-6,11.8-3.4c0.3,0.2,0.7,0.1,1.1,0.1c4.3,0.3,8.7,0.2,13,0.9c3.4,0.5,6.6,2.2,9.9,2.9c2.3,0.5,4.7,0.4,7.1,0.6
			c0.1-0.3,0.2-0.5,0.3-0.8c-1-1.3-1.9-2.7-3-3.9c-3.1-3.5-6.2-6.9-9.4-10.2c-0.6-0.6-1.6-0.8-2.2-1.4c-2.2-2.1-4.3-4.4-6.4-6.6
			c-0.9-0.9-1.5-2.1-2.6-2.7c-4.1-2.4-8.7-4.2-11.5-8.5c-0.4-0.5-1.1-0.9-1.8-1.2c-3.6-1.8-7.1-3.6-10.7-5.3
			c-1.8-0.9-3.6-1.7-5.4-2.4c-5-1.9-9.6-4.6-13.4-8.5c-0.5-0.5-1.6-1.1-2.2-0.9c-2.5,0.7-4.5-0.3-6.6-1.2c-2.7-1.1-5.5-1.9-8.2-2.9
			c-3.6-1.3-7.3-2.3-10.7-4c-2.2-1.1-3.8-3.5-6.8-1.8c-0.4,0.2-1.2-0.2-1.8-0.4c-5-1.4-10-2.7-15-4.1c-0.5-0.1-1.1-0.1-1.6-0.2
			c-1.9-0.4-3.7-0.9-5.6-1.2c-1.9-0.2-4.1-0.7-5.6,0.1c-1.9,1.1-3.4,1.2-5.3,0.5c-0.8-0.3-1.7-0.2-2.5-0.1c-4.7,0.6-9.3,1.3-13.9,2
			c-1.5,0.2-3,0.5-4.5,0.7c-2.4,0.3-5.1,1.3-7.1,0.6c-2.9-1.1-4.8,0-7.2,0.8c-4.4,1.4-8.8,3.4-13.6,2.9c-0.6-0.1-1.8,0.6-2,1.2
			c-0.9,2.2-2.8,2.2-4.6,2.4c-1.3,0.2-3.1,0.1-3.7,0.9c-2,2.5-4.9,2.7-7.5,3.9c-4.8,2.2-10.9,1.8-14.4,6.8c-0.2,0.3-0.6,0.3-0.9,0.5
			c-3.2,1.4-6.4,2.8-9.6,4.3c-0.4,0.2-0.7,0.8-1,1.2c-0.9,1-1.7,2-2.7,2.9c-7.2,6.6-17.2,8.4-24.5,14.9c-3.9,3.4-8,6.5-12.1,9.8
			c-1,0.8-2.3,1.2-3.3,2c-1,0.8-2.3,1.9-2.4,3c-0.2,2.6-1.8,4.2-3.6,5.2C135.2,160.2,134.9,160.3,136.3,163.4z M268.4,179.9
			c-2.5,4.5-4.7,5.3-9.2,3.8c-3.5-1.1-5.1-0.2-5.2,3.3c0,2.5,0.4,5,0.8,7.4c0.5,2.7,1.9,5.5,1.7,8.1c-0.4,6,2.1,11.2,4.2,16.5
			c1.2,3,2.8,5.9,3.6,8.9c1,3.4,1.1,7,2.1,10.4c1.2,3.9,2.8,7.7,4.4,11.5c1.6,3.8,3.4,7.4,5,11.2c2.5,5.5,4.7,11.2,7.5,16.6
			c1.9,3.8,4.9,7.2,6.6,11c3,6.5,7.9,11.6,12.2,17.1c1.9,2.4,4.3,4.5,6.4,6.9c1.9,2.2,3.4,4.6,5.3,6.7c2.3,2.6,4.9,4.9,7.3,7.3
			c1.8,1.9,3.5,3.9,5.5,5.6c4.1,3.3,8.2,6.6,12.6,9.4c7.3,4.7,11.9,12.3,19.4,16.8c3.9,2.4,7.2,5.8,10.7,8.8
			c1.4,1.2,2.8,2.5,4.2,3.7c3.2,2.6,6.5,5.1,9.5,7.9c4.4,4,8.6,8.3,13,12.4c4.9,4.6,11.2,7.3,15.4,12.8c0.8,1.1,1.8,1.3,3.1,0
			c1.9-1.9,4.3-3.4,6.4-5c0.4-0.3,0.7-0.8,1-1.2c0.9-1.4,1.6-2.9,2.6-4.1c2.8-3.2,5.9-6.3,8.7-9.6c2.4-2.9,4.6-6,6.9-9.1
			c0.2-0.3,0.4-0.8,0.5-1.2c0.2-1.3,0.3-2.7,0.6-3.9c1.2-4.1,3.1-8.1,3.7-12.3c0.6-4.2,2.3-7.6,4.8-10.8c0.5-0.7,0.4-1.9,0.5-2.9
			c0.1-0.6,0-1.2,0.1-1.8c0.9-3.9,1.8-7.8,2.6-11.7c0.3-1.5,0.1-3,0.2-4.5c0.1-2.6-0.6-5.7,0.7-7.6c1.3-2,0.6-3.4,0.6-5.1
			c0-0.9-0.2-1.8,0-2.6c1.3-6,1.8-12.1,1.5-18.3c-0.2-2.9,0.9-5.6,0-8.8c-1-3.6,0.1-7.8,0-11.7c-0.2-5.1-0.6-10.1-0.9-15.2
			c-0.1-1.4,0.2-2.8,0.2-4.2c0-1.4,0.2-2.9-0.1-4.3c-1.2-4.8-2.6-9.6-3.9-14.4c-0.8-2.9-1.1-6-2.5-8.6c-2.5-4.7-5.3-9.2-5.3-14.8
			c0-1-0.5-2-1-3c-1.6-3.3-3.5-6.4-4.7-9.8c-0.8-2.4-0.7-5-1-7.6c-0.4-3.6-3.3-5.8-5-8.6c-2.1-3.4-5-5.4-9.3-4.1
			c-0.3,0.1-0.7,0-1-0.1c-0.4,1-0.8,1.8-1.2,2.7c1.2,1.1,2.4,2.1,3.8,3.3c-1.4,0.4-2.4,0.6-3.4,0.9c-2.5,0.7-4.9,1.4-7.4,2.1
			c-1.5,0.4-2.9,0.8-4.4,1.1c-1.3,0.3-2.9,0-4,0.7c-4.9,2.7-10.4,2.4-15.6,3.6c-3.5,0.9-6.6,1-9.8-0.6c-1.4-0.7-2.7-1.4-4.2-1.7
			c-0.9-0.2-2,0.3-3.7,0.6c1.6,1.3,2.4,1.9,3.4,2.7c-1.6,0.1-3,0.3-4.3,0.2c-4.8-0.3-9.8,1.1-14.4-1.4c-0.9-0.5-2.3-0.4-3.4-0.3
			c-2.1,0.2-4.2,0.5-6.2,0.7c4.1,5,11.6,4.7,16.9,8.8c-1.8,0.8-3.2,1.6-5.2,2.5c2.8,1.1,5,1.9,7.1,2.8c-0.9,0.5-1.9,1.1-3.3,2
			c4.2,0.5,7.8,2,11.2-0.5c0.4-0.3,1.2-0.2,1.8,0c5.2,1.9,9.3,5.6,13.3,9.1c5,4.3,9.7,9.1,14.4,13.8c1.5,1.5,2.8,3.4,3.9,5.3
			c0.3,0.5-0.3,1.7-0.9,2.3c-0.4,0.5-1.4,0.5-2.7,0.8c1.3,0.5,2.1,0.8,2.9,1.1c-1.2,1.2-2.3,2.4-3.1,3.1c-1.7-0.6-3.3-1.2-4.9-1.7
			c-0.2,0.2-0.5,0.4-0.7,0.6c0.5,1.5,0.8,3.2,1.6,4.6c0.8,1.3,2.2,2.1,3.3,3.2c0,0.2-0.1,0.5-0.1,0.7c-5.6-0.9-11.1-1.7-16.7-2.8
			c-2.2-0.4-4.4-2.5-6.5-2.3c-5.2,0.5-7.8-2.5-10.2-6.2c-0.2-0.3-0.5-0.5-1.2-1.4c0,2.1,0,3.5,0,4.2c-5.6-2-11.4-4.5-17.4-6.1
			c-8.7-2.3-14.5-8.1-19.4-15c-1.8-2.6-3-5.6-4.8-8.3c-1.3-2-2.9-3.7-4.4-5.6c-0.1,0.1-0.3,0.2-0.5,0.3c0.7,3.5,1.4,7.1,2,10.5
			c-0.3-0.3-0.7-0.6-1.3-1c0.6,2.2,1.2,4.2,1.9,6.6c-5.1-3.2-9.8-6.1-14.5-9c-0.3,0.4-0.6,1-1.1,1.7c-1.7-2-3.2-3.8-4.7-5.5
			c-0.7,0.9-1.2,1.5-1.9,2.4c-2-1.5-3.9-3-5.8-4.5c-0.2,0.5-0.3,0.9-0.9,2.3c-3.3-8.2-10.3-12.4-15.3-18.6c-0.5,0.8-0.9,1.6-1.5,2.5
			c-0.3-3.3-0.6-6.3-0.9-9.3c0-0.3-0.2-0.7-0.5-0.8C273.9,183,271.2,181.5,268.4,179.9z M201.3,446.6c4.8,3.4,8.9,6.3,13.1,9.2
			c0.3,0.2,0.7,0.2,1,0.3c1.7,0.4,3.5,0.6,5.2,1.1c8.4,2.6,16.7,4.9,25.8,4.3c7.1-0.5,14.4-0.7,21.5,1.1c0.4,0.1,0.8-0.2,1.3-0.2
			c3.2-0.3,6.5-0.7,9.7-0.9c3.1-0.1,6.2,0,9.3,0c2.2,0,4.5,0,6.7,0c1.9,0,4,0.2,5.8-0.2c3.6-0.9,7.1-2.5,10.8-3.4
			c2-0.5,4.4-0.8,6.3-0.2c1.8,0.6,3,0.6,4.5-0.2c5.7-3.1,12-3.8,18.2-5c0.6-0.1,1.4-0.2,1.9,0.1c1.8,1,2.8,0.1,3.9-1.1
			c3.3-3.7,7.7-5.7,12.4-6.1c2.9-0.2,4.6-1.3,5.9-3.6c0.2-0.4,0.7-0.6,1-0.8c3-2,5.9-4.1,9.2-6.3c-6.7-5-13.1-9.8-19.4-14.5
			c-8.3-6.2-16.7-12.4-25-18.6c-7.9-5.9-15.7-11.8-23.6-17.8c-6.7-5.1-13.4-10.3-20.1-15.4c-1.2-1-2.6-1.7-3.9-2.6
			c-9.2,12.1-18.1,23.9-27.2,35.9c0.1,0.1,0.5,0.6,0.9,1.1c-1,0.1-2.1-0.1-2.6,0.3c-2.8,2.7-5.4,5.5-8.1,8.2c-2.9,3-5.7,6.2-8.9,8.9
			c-4.6,4-9.4,7.8-14.3,11.5c-4.3,3.3-8.7,6.6-13.1,9.7C207,443.2,204.4,444.6,201.3,446.6z M255.7,174.9c2.3,5.5,5,6.8,10,5
			C263.3,176.3,259.1,176.7,255.7,174.9z M282.1,175.6c-2.7-0.5-5-0.9-7.3-1.3c-0.1,0.3-0.1,0.6-0.2,0.9
			C277,175.2,278.7,178.7,282.1,175.6z"/>
	</g>
</g>
</svg>
